<svg width="291" height="217" viewBox="0 0 291 217" fill="none" xmlns="http://www.w3.org/2000/svg">
    <g clip-path="url(#clip0_2606_14190)">
        <path d="M290.577 216.955H0C3.18382 208.145 9.06382 200.671 17.3525 198.454C29.4778 195.215 42.3095 204.122 54.4075 200.773C61.281 198.872 66.6922 193.333 72.3781 188.733C93.8307 171.381 123.226 166.252 148.61 175.437C161.878 180.236 173.968 188.628 187.56 192.194C205.136 196.809 223.516 192.982 241.591 192.351C259.194 191.739 284.415 199.521 290.577 216.955Z" fill="#624DE3" />
        <path d="M243.316 151.234C241.239 158.06 234.072 164.125 236.213 169.145C237.028 171.053 237.845 173.049 238.222 175.087C238.466 176.303 238.507 177.556 238.342 178.787C237.57 184.103 232.985 187.634 228.722 190.383C228.459 190.552 228.193 190.725 227.927 190.897C223.888 193.523 219.657 196.547 218.359 201.395C217.639 204.088 217.957 206.968 217.658 209.752C217.375 212.311 216.574 214.771 215.312 216.955H188.088C185.671 214.065 185.872 209.207 187.712 205.799C189.681 202.152 193.007 199.673 196.008 196.977C198.6 194.646 201.127 191.841 202.117 188.419C202.274 187.877 202.39 187.323 202.464 186.761C202.704 184.909 202.575 175.45 205.534 169.627C210.108 160.637 217.528 162.851 219.796 157.778C220.666 155.835 221.415 131.956 235.87 136.367C237.279 136.776 238.597 137.493 239.743 138.472C240.889 139.452 241.839 140.674 242.536 142.065C243.233 143.456 243.661 144.986 243.795 146.562C243.929 148.139 243.766 149.728 243.316 151.234Z" fill="#ADB0FF" />
        <path d="M269.755 188.57C269.34 188.88 268.894 189.137 268.425 189.337C264.525 190.925 253.679 190.749 252.092 194.928C251.346 196.892 251.168 199.061 250.528 201.071C249.078 205.629 245.25 209.048 240.967 210.333C239.426 210.794 237.83 211.009 236.305 211.523C233.359 212.519 230.919 214.522 228.774 216.954H193.614C193.598 214.424 194.172 211.931 195.281 209.706C196.39 207.481 198 205.595 199.96 204.225C203.869 201.549 208.808 201.05 212.646 198.254C215.176 196.41 216.997 193.745 218.44 190.798C219.359 188.871 220.17 186.885 220.871 184.852C221.945 181.829 223.067 178.583 225.507 176.71C226.703 175.866 228.03 175.263 229.423 174.929C232.947 173.929 235.656 174.517 238.222 175.087C241.337 175.777 244.244 176.435 248.147 174.186C255.071 170.194 265.194 150.286 275.31 169.201C279.366 176.787 273.769 185.655 269.755 188.57Z" fill="#8878EA" />
        <path d="M49.2495 151.234C51.326 158.06 58.4931 164.125 56.3517 169.145C55.5373 171.053 54.7197 173.049 54.3434 175.087C54.0992 176.303 54.0585 177.556 54.2233 178.787C54.9955 184.103 59.58 187.634 63.8432 190.383C64.106 190.552 64.3721 190.725 64.6381 190.897C68.6775 193.523 72.9084 196.547 74.2062 201.395C74.9264 204.088 74.6085 206.968 74.907 209.752C75.1898 212.311 75.9908 214.771 77.2527 216.955H104.477C106.894 214.065 106.693 209.207 104.854 205.799C102.884 202.152 99.5586 199.673 96.5575 196.977C93.9651 194.646 91.4376 191.841 90.4481 188.419C90.2908 187.877 90.1747 187.323 90.1009 186.761C89.8608 184.909 89.9906 175.45 87.0316 169.627C82.4569 160.637 75.0367 162.851 72.7688 157.778C71.8993 155.835 71.1498 131.956 56.6956 136.367C55.2862 136.776 53.9683 137.493 52.8222 138.472C51.6761 139.452 50.7258 140.674 50.0291 142.065C49.3325 143.456 48.9041 144.986 48.7701 146.562C48.636 148.139 48.7992 149.728 49.2495 151.234Z" fill="#ADB0FF" />
        <path d="M22.8095 188.57C23.2245 188.88 23.6708 189.137 24.1397 189.337C28.0396 190.925 38.8859 190.749 40.4725 194.928C41.2187 196.892 41.3972 199.061 42.0363 201.071C43.4866 205.629 47.3151 209.048 51.5978 210.333C53.139 210.794 54.7353 211.009 56.2602 211.523C59.2062 212.519 61.646 214.522 63.7906 216.954H98.9512C98.9668 214.424 98.3932 211.931 97.2838 209.706C96.1744 207.481 94.565 205.595 92.605 204.225C88.6954 201.549 83.7573 201.05 79.919 198.254C77.3883 196.41 75.5682 193.745 74.1244 190.798C73.2059 188.871 72.3944 186.885 71.6942 184.852C70.6203 181.829 69.4977 178.583 67.0579 176.71C65.8614 175.866 64.535 175.263 63.1418 174.929C59.6182 173.929 56.9091 174.517 54.3427 175.087C51.228 175.777 48.3209 176.435 44.4178 174.186C37.494 170.194 27.3712 150.286 17.2549 169.201C13.2006 176.787 18.7973 185.655 22.8095 188.57Z" fill="#8878EA" />
        <path d="M187.081 3.10754H107.462C101.365 3.10754 96.4219 8.4704 96.4219 15.0858V201.917C96.4219 208.532 101.365 213.895 107.462 213.895H187.081C193.178 213.895 198.121 208.532 198.121 201.917V15.0858C198.121 8.4704 193.178 3.10754 187.081 3.10754Z" fill="white" />
        <path d="M187.08 217.001H107.461C103.775 216.996 100.241 215.405 97.6351 212.577C95.0289 209.749 93.5629 205.915 93.5586 201.916V15.0854C93.5629 11.0862 95.0289 7.2522 97.6351 4.42431C100.241 1.59642 103.775 0.00557715 107.461 0.000732422L187.08 0.000732422C190.766 0.00557715 194.3 1.59642 196.906 4.42431C199.512 7.2522 200.978 11.0862 200.982 15.0854V201.916C200.978 205.915 199.512 209.749 196.906 212.577C194.3 215.405 190.766 216.996 187.08 217.001ZM107.461 6.21306C105.293 6.21549 103.214 7.151 101.681 8.81433C100.148 10.4777 99.2853 12.733 99.2829 15.0854V201.916C99.2855 204.268 100.148 206.523 101.681 208.186C103.213 209.849 105.291 210.784 107.459 210.787H187.079C189.246 210.784 191.325 209.849 192.857 208.186C194.39 206.523 195.252 204.268 195.255 201.916V15.0854C195.252 12.7334 194.39 10.4787 192.857 8.81564C191.325 7.15258 189.246 6.21701 187.079 6.21412L107.461 6.21306Z" fill="#DEE8F5" />
        <path d="M129.836 3.10681H164.703V10.4471C164.703 11.1685 164.572 11.883 164.317 12.5495C164.063 13.2161 163.69 13.8218 163.219 14.3319C162.749 14.8421 162.191 15.2467 161.577 15.5228C160.962 15.7989 160.304 15.9409 159.639 15.9409H134.9C133.557 15.9409 132.269 15.362 131.319 14.3317C130.369 13.3013 129.836 11.9039 129.836 10.4467V3.10681H129.836Z" fill="#DEE8F5" />
        <path d="M163.968 48.4811C163.968 52.0644 162.988 55.5671 161.153 58.5463C159.318 61.5255 156.71 63.8474 153.659 65.2183C150.607 66.5892 147.25 66.9477 144.011 66.2483C140.772 65.5489 137.797 63.823 135.462 61.289C133.127 58.755 131.537 55.5266 130.893 52.0121C130.249 48.4976 130.58 44.8549 131.844 41.5445C133.108 38.2341 135.249 35.4048 137.995 33.4143C140.741 31.4238 143.969 30.3616 147.272 30.3619C149.467 30.3529 151.642 30.8154 153.672 31.7229C155.701 32.6303 157.545 33.9646 159.097 35.649C160.649 37.3334 161.879 39.3344 162.715 41.5368C163.551 43.7392 163.977 46.0993 163.968 48.4811Z" fill="#C1D8ED" />
        <path d="M147.269 50.3475C150.921 50.3475 153.881 47.1359 153.881 43.1741C153.881 39.2124 150.921 36.0007 147.269 36.0007C143.618 36.0007 140.658 39.2124 140.658 43.1741C140.658 47.1359 143.618 50.3475 147.269 50.3475Z" fill="white" />
        <path d="M159.301 61.0422C157.743 62.7995 155.875 64.1977 153.807 65.1528C151.74 66.108 149.516 66.6005 147.269 66.6008C145.022 66.6011 142.798 66.1093 140.731 65.1547C138.663 64.2002 136.794 62.8026 135.236 61.0457C137.488 55.5857 142.034 51.8541 147.27 51.8541C152.507 51.8541 157.049 55.5818 159.301 61.0422Z" fill="white" />
        <path d="M182.449 79.6621H112.09V96.3161H182.449V79.6621Z" fill="#32962C" />
        <path d="M182.295 112.299H111.936V128.953H182.295V112.299Z" fill="#C1D8ED" />
        <path d="M232.132 70.9178C232.132 70.9178 229.523 69.7019 229.523 62.2645L224.278 61.6847C224.278 61.6847 225.359 68.2568 222.904 70.5911L232.132 70.9178Z" fill="#E98862" />
        <path d="M232.238 59.1385C232.049 61.4119 231.082 63.6346 229.315 64.5207C227.393 65.5529 225.268 66.0592 223.125 65.9954C217.431 65.9954 217.496 51.9429 219.976 48.9921C222.456 46.0414 230.466 47.0584 231.767 51.506C232.439 53.8083 232.416 56.9749 232.238 59.1385Z" fill="#E98862" />
        <path d="M223.978 58.1341C224.238 58.1341 224.448 57.9057 224.448 57.624C224.448 57.3423 224.238 57.1139 223.978 57.1139C223.718 57.1139 223.508 57.3423 223.508 57.624C223.508 57.9057 223.718 58.1341 223.978 58.1341Z" fill="#624DE3" />
        <path d="M224.903 56.613C224.891 56.6129 224.88 56.6119 224.868 56.6101L223.621 56.3989C223.591 56.3951 223.563 56.3849 223.537 56.3689C223.511 56.3529 223.489 56.3314 223.471 56.3058C223.453 56.2801 223.44 56.2508 223.433 56.2196C223.425 56.1884 223.424 56.1559 223.428 56.1241C223.433 56.0922 223.443 56.0618 223.459 56.0344C223.475 56.007 223.495 55.9834 223.52 55.9649C223.544 55.9463 223.571 55.9333 223.6 55.9265C223.629 55.9197 223.659 55.9194 223.688 55.9254L224.936 56.1367C224.991 56.1459 225.041 56.1772 225.075 56.2244C225.11 56.2715 225.127 56.3311 225.123 56.3912C225.119 56.4514 225.094 56.5076 225.053 56.5488C225.013 56.5899 224.959 56.613 224.904 56.6133L224.903 56.613Z" fill="#624DE3" />
        <path d="M220.291 59.788C220.291 60.3616 220.501 60.9116 220.875 61.3172C221.249 61.7227 221.756 61.9506 222.284 61.9506C222.813 61.9506 223.32 61.7227 223.693 61.3172C224.067 60.9116 224.277 60.3616 224.277 59.788C224.286 59.2241 224.088 58.6795 223.727 58.2739C223.366 57.8684 222.871 57.6351 222.351 57.6255C222.329 57.6255 222.306 57.6255 222.284 57.6255C220.865 57.7012 220.291 58.5936 220.291 59.788Z" fill="#E98862" />
        <path d="M220.275 54.7026C219.17 54.6932 218.067 54.5924 216.977 54.4009C216.977 54.4009 217.31 45.2752 226.243 45.7955C227.402 45.738 228.564 45.8125 229.71 46.0176C232.395 46.464 236.201 49.4422 236.815 56.8954C237.097 60.3147 238.183 63.538 239.012 65.5787C239.11 65.8183 239.151 66.0806 239.132 66.3419C239.113 66.6031 239.034 66.855 238.902 67.0748C238.771 67.2946 238.591 67.4752 238.379 67.6004C238.166 67.7256 237.929 67.7913 237.687 67.7916L218.551 67.6261C218.325 67.6262 218.101 67.5689 217.899 67.4587C217.697 67.3485 217.522 67.1885 217.387 66.9916C217.252 66.7946 217.161 66.566 217.122 66.3243C217.083 66.0825 217.097 65.8341 217.162 65.5991C218.203 61.8588 220.108 59.5663 220.275 54.7026Z" fill="#0F1011" />
        <path d="M186.667 93.2185C186.667 93.2185 182.059 91.8326 181.398 90.8772C180.736 89.9218 182.345 86.7059 182.345 86.7059C182.345 86.7059 177.738 84.6596 178.18 83.8516C178.704 82.898 184.457 86.3113 184.457 86.3113C184.457 86.3113 183.206 84.7064 183.818 84.2822C184.07 84.1062 184.397 84.298 185.332 85.4104C186.398 86.6778 188.24 88.4763 188.24 88.4763L186.667 93.2185Z" fill="#E98862" />
        <path d="M209.589 213.147C208.871 206.593 208.871 205.919 208.871 205.697H215.685C215.685 205.675 215.685 205.646 215.685 205.61C215.709 206.158 216.052 209.496 216.357 212.274L209.589 213.147Z" fill="#E98862" />
        <path d="M236.738 214.031C236.738 214.031 236.715 206.375 236.715 205.697H243.528C243.528 206.373 243.551 214.005 243.551 214.005L236.738 214.031Z" fill="#E98862" />
        <path d="M246.606 120.71C246.606 121.759 246.096 125.266 246.917 125.517C247.409 125.667 247.99 123.053 247.99 123.053" fill="#E98862" />
        <path d="M250.483 120.16C250.483 120.16 253.164 127.24 250.106 131.308C250.028 131.412 249.923 131.487 249.805 131.525C249.687 131.563 249.561 131.561 249.443 131.52C249.326 131.479 249.223 131.401 249.147 131.295C249.072 131.189 249.028 131.061 249.02 130.928C248.872 128.185 248.362 122.551 246.695 123.209V118.787" fill="#E98862" />
        <path d="M242.563 165.973C241.905 154.926 240.768 136.395 240.21 125.522H240.302L239.342 108.026L214.659 109.679L214.405 111.555L214.319 111.528C211.425 128.166 210.192 146.566 207.846 163.324C207.682 178.852 207.636 195.102 207.076 210.592L219.081 210.814C219.043 195.682 219.388 179.862 219.799 164.705C221.681 152.825 224.324 139.641 226.446 127.89C228.365 150.783 231.226 188.288 233.347 211.491L245.31 210.394L242.563 165.973Z" fill="#262626" />
        <path d="M228.455 216.89C228.28 216.889 228.107 216.851 227.946 216.777C227.784 216.704 227.638 216.596 227.515 216.461C227.392 216.327 227.294 216.167 227.228 215.991C227.162 215.815 227.128 215.627 227.129 215.437C227.129 215.402 227.13 215.367 227.133 215.331C227.153 215.057 227.244 214.794 227.397 214.574C227.55 214.354 227.757 214.185 227.995 214.089L235.926 211.207C236.079 211.152 236.242 211.133 236.403 211.153C236.564 211.172 236.719 211.229 236.858 211.319C237.948 212.14 239.252 212.56 240.578 212.516C241.611 212.437 242.603 212.044 243.44 211.382C243.514 211.316 243.603 211.275 243.697 211.262C243.792 211.25 243.888 211.267 243.974 211.311C244.059 211.355 244.132 211.425 244.183 211.513C244.234 211.6 244.26 211.701 244.26 211.804V216.012C244.26 216.262 244.169 216.502 244.006 216.678C243.843 216.855 243.622 216.955 243.391 216.955H243.388L228.455 216.89Z" fill="#C1D8ED" />
        <path d="M201.289 216.89C201.114 216.889 200.941 216.851 200.78 216.777C200.618 216.704 200.472 216.596 200.349 216.462C200.226 216.327 200.128 216.167 200.062 215.991C199.996 215.815 199.962 215.627 199.963 215.437C199.963 215.402 199.964 215.367 199.967 215.331C199.987 215.057 200.078 214.794 200.231 214.574C200.384 214.353 200.592 214.185 200.829 214.089L208.76 211.207C208.913 211.152 209.076 211.133 209.237 211.153C209.398 211.172 209.553 211.229 209.692 211.319C210.782 212.14 212.086 212.56 213.412 212.516C214.445 212.437 215.437 212.044 216.274 211.382C216.348 211.316 216.437 211.275 216.532 211.262C216.626 211.25 216.722 211.267 216.808 211.311C216.894 211.355 216.966 211.425 217.017 211.512C217.068 211.6 217.094 211.701 217.094 211.804V216.012C217.094 216.262 217.003 216.502 216.84 216.678C216.677 216.855 216.456 216.955 216.225 216.955H216.222L201.289 216.89Z" fill="#C1D8ED" />
        <path d="M248.991 98.3775C248.955 98.1179 248.895 97.8629 248.812 97.6164L241.365 75.6446L241.32 75.6626C240.996 74.5806 240.437 73.599 239.691 72.8005C238.208 71.1924 235.642 70.1515 232.515 70.1515C227.861 70.1515 221.505 70.1624 220.202 70.2219C216.223 70.4071 214.362 72.3425 213.602 75.2011L204.296 93.3283L188.157 86.8136L185.781 93.7423L204.66 101.365C205.423 101.673 206.263 101.675 207.026 101.369C207.79 101.064 208.428 100.471 208.824 99.6991L214.017 89.5827C214.155 91.0207 214.258 92.4341 214.272 93.7814C214.397 105.211 211.553 107.364 212.954 110.858C214.315 114.246 241.026 115.656 241.383 109.691C241.611 105.897 238.528 102.583 238.528 95.187C238.554 93.7816 238.725 92.3837 239.039 91.0197L242.046 99.8934L244.999 121.475L251.997 120.349L248.991 98.3775Z" fill="#624DE3" />
        <path d="M147.269 193.595C159.606 193.595 169.607 182.744 169.607 169.358C169.607 155.973 159.606 145.121 147.269 145.121C134.933 145.121 124.932 155.973 124.932 169.358C124.932 182.744 134.933 193.595 147.269 193.595Z" fill="#C1D8ED" />
        <path d="M133.377 158.563C130.815 180.542 147.624 186.533 147.624 186.533C147.624 186.533 163.057 180.161 161.284 158.617C161.284 158.617 152.277 160.675 147.624 153.307C147.624 153.308 144.204 160.449 133.377 158.563Z" fill="white" />
        <path d="M152.008 167.209H151.333V165.573C151.324 164.41 150.891 163.298 150.13 162.48C149.369 161.661 148.341 161.202 147.269 161.202C146.197 161.202 145.169 161.661 144.408 162.48C143.647 163.298 143.214 164.41 143.205 165.573V167.209H142.53C142.222 167.209 141.926 167.342 141.708 167.579C141.49 167.815 141.367 168.136 141.367 168.471V176.698C141.367 177.033 141.49 177.354 141.708 177.591C141.926 177.827 142.222 177.96 142.53 177.96H152.009C152.317 177.96 152.613 177.827 152.831 177.591C153.049 177.354 153.172 177.033 153.172 176.698V168.471C153.172 168.305 153.142 168.141 153.083 167.988C153.025 167.835 152.939 167.696 152.831 167.578C152.723 167.461 152.595 167.368 152.453 167.305C152.312 167.241 152.161 167.209 152.008 167.209ZM144.526 165.573C144.534 164.789 144.826 164.04 145.34 163.489C145.853 162.938 146.547 162.629 147.269 162.629C147.991 162.629 148.685 162.938 149.198 163.489C149.712 164.04 150.004 164.789 150.012 165.573V167.209H144.526V165.573Z" fill="#32962C" />
        <path d="M119.048 90.6755C120.415 90.6755 121.523 89.4729 121.523 87.9895C121.523 86.506 120.415 85.3035 119.048 85.3035C117.681 85.3035 116.572 86.506 116.572 87.9895C116.572 89.4729 117.681 90.6755 119.048 90.6755Z" fill="white" />
        <path d="M126.481 90.6755C127.849 90.6755 128.957 89.4729 128.957 87.9895C128.957 86.506 127.849 85.3035 126.481 85.3035C125.114 85.3035 124.006 86.506 124.006 87.9895C124.006 89.4729 125.114 90.6755 126.481 90.6755Z" fill="white" />
        <path d="M133.913 90.6755C135.28 90.6755 136.389 89.4729 136.389 87.9895C136.389 86.506 135.28 85.3035 133.913 85.3035C132.546 85.3035 131.438 86.506 131.438 87.9895C131.438 89.4729 132.546 90.6755 133.913 90.6755Z" fill="white" />
        <path d="M141.345 90.6755C142.712 90.6755 143.82 89.4729 143.82 87.9895C143.82 86.506 142.712 85.3035 141.345 85.3035C139.977 85.3035 138.869 86.506 138.869 87.9895C138.869 89.4729 139.977 90.6755 141.345 90.6755Z" fill="white" />
        <path d="M148.778 90.6755C150.146 90.6755 151.254 89.4729 151.254 87.9895C151.254 86.506 150.146 85.3035 148.778 85.3035C147.411 85.3035 146.303 86.506 146.303 87.9895C146.303 89.4729 147.411 90.6755 148.778 90.6755Z" fill="white" />
        <path d="M156.212 90.6755C157.579 90.6755 158.687 89.4729 158.687 87.9895C158.687 86.506 157.579 85.3035 156.212 85.3035C154.845 85.3035 153.736 86.506 153.736 87.9895C153.736 89.4729 154.845 90.6755 156.212 90.6755Z" fill="white" />
        <path d="M163.378 90.6755C164.745 90.6755 165.853 89.4729 165.853 87.9895C165.853 86.506 164.745 85.3035 163.378 85.3035C162.011 85.3035 160.902 86.506 160.902 87.9895C160.902 89.4729 162.011 90.6755 163.378 90.6755Z" fill="white" />
        <path d="M119.048 119.457C120.415 119.457 121.523 118.255 121.523 116.771C121.523 115.288 120.415 114.085 119.048 114.085C117.681 114.085 116.572 115.288 116.572 116.771C116.572 118.255 117.681 119.457 119.048 119.457Z" fill="white" />
        <path d="M126.481 119.457C127.849 119.457 128.957 118.255 128.957 116.771C128.957 115.288 127.849 114.085 126.481 114.085C125.114 114.085 124.006 115.288 124.006 116.771C124.006 118.255 125.114 119.457 126.481 119.457Z" fill="white" />
        <path d="M133.913 119.457C135.28 119.457 136.389 118.255 136.389 116.771C136.389 115.288 135.28 114.085 133.913 114.085C132.546 114.085 131.438 115.288 131.438 116.771C131.438 118.255 132.546 119.457 133.913 119.457Z" fill="white" />
        <path d="M141.345 119.457C142.712 119.457 143.82 118.255 143.82 116.771C143.82 115.288 142.712 114.085 141.345 114.085C139.977 114.085 138.869 115.288 138.869 116.771C138.869 118.255 139.977 119.457 141.345 119.457Z" fill="white" />
        <path d="M148.778 119.457C150.146 119.457 151.254 118.255 151.254 116.771C151.254 115.288 150.146 114.085 148.778 114.085C147.411 114.085 146.303 115.288 146.303 116.771C146.303 118.255 147.411 119.457 148.778 119.457Z" fill="white" />
        <path d="M156.212 119.457C157.579 119.457 158.687 118.255 158.687 116.771C158.687 115.288 157.579 114.085 156.212 114.085C154.845 114.085 153.736 115.288 153.736 116.771C153.736 118.255 154.845 119.457 156.212 119.457Z" fill="white" />
    </g>
    <defs>
        <clipPath id="clip0_2606_14190">
            <rect width="290.575" height="217" fill="white" />
        </clipPath>
    </defs>
</svg>
